<svg xmlns="http://www.w3.org/2000/svg" xmlns:xlink="http://www.w3.org/1999/xlink" width="1920" zoomAndPan="magnify" viewBox="0 0 1440 341.999987" height="456" preserveAspectRatio="xMidYMid meet" version="1.0"><defs><filter x="0%" y="0%" width="100%" height="100%" id="838a11d46e"><feColorMatrix values="0 0 0 0 1 0 0 0 0 1 0 0 0 0 1 0 0 0 1 0" color-interpolation-filters="sRGB"/></filter><mask id="9d8db33d56"><g filter="url(#838a11d46e)"><rect x="-144" width="1728" fill="#000000" y="-34.199999" height="410.399984" fill-opacity="0.09"/></g></mask><clipPath id="352bc4bf35"><path d="M 0.898438 0.398438 L 85 0.398438 L 85 84 L 0.898438 84 Z M 0.898438 0.398438 " clip-rule="nonzero"/></clipPath><clipPath id="cc9832238b"><path d="M 35 62 L 116.398438 62 L 116.398438 106 L 35 106 Z M 35 62 " clip-rule="nonzero"/></clipPath><clipPath id="81f1ce7d1c"><rect x="0" width="117" y="0" height="106"/></clipPath><mask id="be7fe316ac"><g filter="url(#838a11d46e)"><rect x="-144" width="1728" fill="#000000" y="-34.199999" height="410.399984" fill-opacity="0.09"/></g></mask><clipPath id="287cbe62ed"><path d="M 0.234375 0 L 84 0 L 84 84 L 0.234375 84 Z M 0.234375 0 " clip-rule="nonzero"/></clipPath><clipPath id="71d9f7ee47"><path d="M 35 62 L 115.734375 62 L 115.734375 136.449219 L 35 136.449219 Z M 35 62 " clip-rule="nonzero"/></clipPath><clipPath id="4995d571eb"><rect x="0" width="116" y="0" height="137"/></clipPath><mask id="a7c69a12cc"><g filter="url(#838a11d46e)"><rect x="-144" width="1728" fill="#000000" y="-34.199999" height="410.399984" fill-opacity="0.09"/></g></mask><clipPath id="b071f1a407"><path d="M 33 53 L 117.074219 53 L 117.074219 137.144531 L 33 137.144531 Z M 33 53 " clip-rule="nonzero"/></clipPath><clipPath id="6ba2149a62"><path d="M 1.574219 0.644531 L 83 0.644531 L 83 76 L 1.574219 76 Z M 1.574219 0.644531 " clip-rule="nonzero"/></clipPath><clipPath id="b1187bc2af"><rect x="0" width="118" y="0" height="138"/></clipPath><mask id="460f065c9d"><g filter="url(#838a11d46e)"><rect x="-144" width="1728" fill="#000000" y="-34.199999" height="410.399984" fill-opacity="0.09"/></g></mask><clipPath id="829e218996"><path d="M 1.050781 0 L 85 0 L 85 47 L 1.050781 47 Z M 1.050781 0 " clip-rule="nonzero"/></clipPath><clipPath id="2faeb60269"><path d="M 35 24 L 116.550781 24 L 116.550781 99.28125 L 35 99.28125 Z M 35 24 " clip-rule="nonzero"/></clipPath><clipPath id="d751ee92ef"><rect x="0" width="118" y="0" height="100"/></clipPath><mask id="c4b71b65ba"><g filter="url(#838a11d46e)"><rect x="-144" width="1728" fill="#000000" y="-34.199999" height="410.399984" fill-opacity="0.09"/></g></mask><clipPath id="81f3a6d492"><path d="M 0.433594 0 L 84 0 L 84 47 L 0.433594 47 Z M 0.433594 0 " clip-rule="nonzero"/></clipPath><clipPath id="4ce21b3b26"><path d="M 35 24 L 115.933594 24 L 115.933594 99.28125 L 35 99.28125 Z M 35 24 " clip-rule="nonzero"/></clipPath><clipPath id="df905aaf10"><rect x="0" width="117" y="0" height="100"/></clipPath><mask id="cb2cb5c9f0"><g filter="url(#838a11d46e)"><rect x="-144" width="1728" fill="#000000" y="-34.199999" height="410.399984" fill-opacity="0.09"/></g></mask><clipPath id="22e96f30f0"><path d="M 0.292969 0 L 84 0 L 84 56 L 0.292969 56 Z M 0.292969 0 " clip-rule="nonzero"/></clipPath><clipPath id="1c840fe39f"><path d="M 35 34 L 115.792969 34 L 115.792969 108.472656 L 35 108.472656 Z M 35 34 " clip-rule="nonzero"/></clipPath><clipPath id="078b18abf4"><rect x="0" width="117" y="0" height="109"/></clipPath><mask id="3d680d8cef"><g filter="url(#838a11d46e)"><rect x="-144" width="1728" fill="#000000" y="-34.199999" height="410.399984" fill-opacity="0.09"/></g></mask><clipPath id="a87fc04f43"><path d="M 0.175781 0.558594 L 84 0.558594 L 84 84 L 0.175781 84 Z M 0.175781 0.558594 " clip-rule="nonzero"/></clipPath><clipPath id="831bef64ec"><path d="M 34 62 L 115.675781 62 L 115.675781 137.050781 L 34 137.050781 Z M 34 62 " clip-rule="nonzero"/></clipPath><clipPath id="63e2791cc2"><rect x="0" width="117" y="0" height="138"/></clipPath><mask id="18352e128c"><g filter="url(#838a11d46e)"><rect x="-144" width="1728" fill="#000000" y="-34.199999" height="410.399984" fill-opacity="0.09"/></g></mask><clipPath id="e13226c870"><path d="M 0.363281 0.417969 L 84 0.417969 L 84 84 L 0.363281 84 Z M 0.363281 0.417969 " clip-rule="nonzero"/></clipPath><clipPath id="a8437e15cd"><path d="M 35 62 L 115.863281 62 L 115.863281 100 L 35 100 Z M 35 62 " clip-rule="nonzero"/></clipPath><clipPath id="efad4810b6"><rect x="0" width="117" y="0" height="100"/></clipPath></defs><rect x="-144" width="1728" fill="#ffffff" y="-34.199999" height="410.399984" fill-opacity="1"/><rect x="-144" width="1728" fill="#e7191f" y="-34.199999" height="410.399984" fill-opacity="1"/><g mask="url(#9d8db33d56)"><g transform="matrix(1, 0, 0, 1, 1306, 236)"><g clip-path="url(#81f1ce7d1c)"><g clip-path="url(#352bc4bf35)"><path fill="#ffffff" d="M 79.476562 25.84375 L 58.65625 25.84375 L 58.65625 5.023438 C 58.65625 2.496094 56.609375 0.445312 54.078125 0.445312 L 30.878906 0.445312 C 28.347656 0.445312 26.296875 2.496094 26.296875 5.023438 L 26.296875 25.84375 L 5.480469 25.84375 C 2.949219 25.84375 0.898438 27.894531 0.898438 30.425781 L 0.898438 53.625 C 0.898438 56.15625 2.949219 58.203125 5.480469 58.203125 L 26.296875 58.203125 L 26.296875 79.023438 C 26.296875 81.554688 28.347656 83.601562 30.878906 83.601562 L 54.078125 83.601562 C 56.609375 83.601562 58.65625 81.554688 58.65625 79.023438 L 58.65625 58.203125 L 79.476562 58.203125 C 82.007812 58.203125 84.058594 56.15625 84.058594 53.625 L 84.058594 30.425781 C 84.058594 27.894531 82.007812 25.84375 79.476562 25.84375 Z M 79.476562 25.84375 " fill-opacity="1" fill-rule="nonzero"/></g><g clip-path="url(#cc9832238b)"><path fill="#ffffff" d="M 77.277344 110.507812 L 77.277344 122.109375 C 77.277344 123.375 76.253906 124.398438 74.988281 124.398438 L 64.5625 124.398438 L 64.5625 134.824219 C 64.5625 136.089844 63.539062 137.113281 62.273438 137.113281 L 50.671875 137.113281 C 49.40625 137.113281 48.382812 136.089844 48.382812 134.824219 L 48.382812 124.398438 L 37.957031 124.398438 C 36.691406 124.398438 35.667969 123.375 35.667969 122.109375 L 35.667969 110.507812 C 35.667969 109.242188 36.691406 108.21875 37.957031 108.21875 L 48.382812 108.21875 L 48.382812 97.792969 C 48.382812 96.527344 49.40625 95.503906 50.671875 95.503906 L 62.273438 95.503906 C 63.539062 95.503906 64.5625 96.527344 64.5625 97.792969 L 64.5625 108.21875 L 74.988281 108.21875 C 76.222656 108.21875 77.277344 109.242188 77.277344 110.507812 Z M 114.757812 72.847656 L 106.230469 72.847656 L 106.230469 64.320312 C 106.230469 63.296875 105.390625 62.453125 104.363281 62.453125 L 94.875 62.453125 C 93.847656 62.453125 93.003906 63.296875 93.003906 64.320312 L 93.003906 72.847656 L 84.480469 72.847656 C 83.453125 72.847656 82.609375 73.691406 82.609375 74.714844 L 82.609375 84.207031 C 82.609375 85.230469 83.453125 86.074219 84.480469 86.074219 L 93.003906 86.074219 L 93.003906 94.601562 C 93.003906 95.625 93.847656 96.46875 94.875 96.46875 L 104.363281 96.46875 C 105.390625 96.46875 106.230469 95.625 106.230469 94.601562 L 106.230469 86.074219 L 114.757812 86.074219 C 115.785156 86.074219 116.628906 85.230469 116.628906 84.207031 L 116.628906 74.714844 C 116.65625 73.691406 115.8125 72.847656 114.757812 72.847656 Z M 114.757812 72.847656 " fill-opacity="1" fill-rule="nonzero"/></g></g></g></g><g mask="url(#be7fe316ac)"><g transform="matrix(1, 0, 0, 1, 1324, 96)"><g clip-path="url(#4995d571eb)"><g clip-path="url(#287cbe62ed)"><path fill="#ffffff" d="M 78.8125 25.410156 L 57.992188 25.410156 L 57.992188 4.589844 C 57.992188 2.058594 55.941406 0.0117188 53.410156 0.0117188 L 30.210938 0.0117188 C 27.679688 0.0117188 25.632812 2.058594 25.632812 4.589844 L 25.632812 25.410156 L 4.8125 25.410156 C 2.28125 25.410156 0.234375 27.457031 0.234375 29.988281 L 0.234375 53.1875 C 0.234375 55.71875 2.28125 57.769531 4.8125 57.769531 L 25.632812 57.769531 L 25.632812 78.589844 C 25.632812 81.117188 27.679688 83.167969 30.210938 83.167969 L 53.410156 83.167969 C 55.941406 83.167969 57.992188 81.117188 57.992188 78.589844 L 57.992188 57.769531 L 78.8125 57.769531 C 81.339844 57.769531 83.390625 55.71875 83.390625 53.1875 L 83.390625 29.988281 C 83.390625 27.457031 81.339844 25.410156 78.8125 25.410156 Z M 78.8125 25.410156 " fill-opacity="1" fill-rule="nonzero"/></g><g clip-path="url(#71d9f7ee47)"><path fill="#ffffff" d="M 76.613281 110.074219 L 76.613281 121.671875 C 76.613281 122.9375 75.585938 123.964844 74.320312 123.964844 L 63.898438 123.964844 L 63.898438 134.386719 C 63.898438 135.652344 62.871094 136.679688 61.605469 136.679688 L 50.007812 136.679688 C 48.742188 136.679688 47.71875 135.652344 47.71875 134.386719 L 47.71875 123.964844 L 37.292969 123.964844 C 36.027344 123.964844 35.003906 122.9375 35.003906 121.671875 L 35.003906 110.074219 C 35.003906 108.808594 36.027344 107.785156 37.292969 107.785156 L 47.71875 107.785156 L 47.71875 97.359375 C 47.71875 96.09375 48.742188 95.070312 50.007812 95.070312 L 61.605469 95.070312 C 62.871094 95.070312 63.898438 96.09375 63.898438 97.359375 L 63.898438 107.785156 L 74.320312 107.785156 C 75.558594 107.785156 76.613281 108.808594 76.613281 110.074219 Z M 114.09375 72.410156 L 105.566406 72.410156 L 105.566406 63.886719 C 105.566406 62.859375 104.722656 62.015625 103.699219 62.015625 L 94.207031 62.015625 C 93.183594 62.015625 92.339844 62.859375 92.339844 63.886719 L 92.339844 72.410156 L 83.8125 72.410156 C 82.789062 72.410156 81.945312 73.253906 81.945312 74.28125 L 81.945312 83.769531 C 81.945312 84.792969 82.789062 85.636719 83.8125 85.636719 L 92.339844 85.636719 L 92.339844 94.164062 C 92.339844 95.1875 93.183594 96.03125 94.207031 96.03125 L 103.699219 96.03125 C 104.722656 96.03125 105.566406 95.1875 105.566406 94.164062 L 105.566406 85.636719 L 114.09375 85.636719 C 115.117188 85.636719 115.960938 84.792969 115.960938 83.769531 L 115.960938 74.28125 C 115.992188 73.253906 115.148438 72.410156 114.09375 72.410156 Z M 114.09375 72.410156 " fill-opacity="1" fill-rule="nonzero"/></g></g></g></g><g mask="url(#a7c69a12cc)"><g transform="matrix(1, 0, 0, 1, 1212, 86)"><g clip-path="url(#b1187bc2af)"><g clip-path="url(#b071f1a407)"><path fill="#ffffff" d="M 38.496094 111.683594 L 59.316406 111.683594 L 59.316406 132.5 C 59.316406 135.03125 61.363281 137.082031 63.894531 137.082031 L 87.09375 137.082031 C 89.625 137.082031 91.675781 135.03125 91.675781 132.5 L 91.675781 111.683594 L 112.492188 111.683594 C 115.023438 111.683594 117.074219 109.632812 117.074219 107.101562 L 117.074219 83.902344 C 117.074219 81.371094 115.023438 79.324219 112.492188 79.324219 L 91.675781 79.324219 L 91.675781 58.503906 C 91.675781 55.972656 89.625 53.921875 87.09375 53.921875 L 63.894531 53.921875 C 61.363281 53.921875 59.316406 55.972656 59.316406 58.503906 L 59.316406 79.324219 L 38.496094 79.324219 C 35.964844 79.324219 33.914062 81.371094 33.914062 83.902344 L 33.914062 107.101562 C 33.914062 109.632812 35.964844 111.683594 38.496094 111.683594 Z M 38.496094 111.683594 " fill-opacity="1" fill-rule="nonzero"/></g><g clip-path="url(#6ba2149a62)"><path fill="#ffffff" d="M 40.695312 27.019531 L 40.695312 15.417969 C 40.695312 14.152344 41.71875 13.128906 42.984375 13.128906 L 53.410156 13.128906 L 53.410156 2.703125 C 53.410156 1.4375 54.433594 0.414062 55.699219 0.414062 L 67.300781 0.414062 C 68.566406 0.414062 69.589844 1.4375 69.589844 2.703125 L 69.589844 13.128906 L 80.015625 13.128906 C 81.28125 13.128906 82.304688 14.152344 82.304688 15.417969 L 82.304688 27.019531 C 82.304688 28.28125 81.28125 29.308594 80.015625 29.308594 L 69.589844 29.308594 L 69.589844 39.730469 C 69.589844 40.996094 68.566406 42.023438 67.300781 42.023438 L 55.699219 42.023438 C 54.433594 42.023438 53.410156 40.996094 53.410156 39.730469 L 53.410156 29.308594 L 42.984375 29.308594 C 41.75 29.308594 40.695312 28.28125 40.695312 27.019531 Z M 3.214844 64.679688 L 11.742188 64.679688 L 11.742188 73.207031 C 11.742188 74.230469 12.585938 75.074219 13.609375 75.074219 L 23.097656 75.074219 C 24.125 75.074219 24.96875 74.230469 24.96875 73.207031 L 24.96875 64.679688 L 33.492188 64.679688 C 34.519531 64.679688 35.363281 63.835938 35.363281 62.8125 L 35.363281 53.320312 C 35.363281 52.296875 34.519531 51.453125 33.492188 51.453125 L 24.96875 51.453125 L 24.96875 42.925781 C 24.96875 41.902344 24.125 41.058594 23.097656 41.058594 L 13.609375 41.058594 C 12.585938 41.058594 11.742188 41.902344 11.742188 42.925781 L 11.742188 51.453125 L 3.214844 51.453125 C 2.1875 51.453125 1.347656 52.296875 1.347656 53.320312 L 1.347656 62.8125 C 1.316406 63.835938 2.160156 64.679688 3.214844 64.679688 Z M 3.214844 64.679688 " fill-opacity="1" fill-rule="nonzero"/></g></g></g></g><g mask="url(#460f065c9d)"><g transform="matrix(1, 0, 0, 1, 1281, 0)"><g clip-path="url(#d751ee92ef)"><g clip-path="url(#829e218996)"><path fill="#ffffff" d="M 79.628906 -11.753906 L 58.808594 -11.753906 L 58.808594 -32.574219 C 58.808594 -35.105469 56.761719 -37.15625 54.230469 -37.15625 L 31.03125 -37.15625 C 28.5 -37.15625 26.449219 -35.105469 26.449219 -32.574219 L 26.449219 -11.753906 L 5.632812 -11.753906 C 3.101562 -11.753906 1.050781 -9.707031 1.050781 -7.175781 L 1.050781 16.023438 C 1.050781 18.554688 3.101562 20.605469 5.632812 20.605469 L 26.449219 20.605469 L 26.449219 41.421875 C 26.449219 43.953125 28.5 46.003906 31.03125 46.003906 L 54.230469 46.003906 C 56.761719 46.003906 58.808594 43.953125 58.808594 41.421875 L 58.808594 20.605469 L 79.628906 20.605469 C 82.160156 20.605469 84.207031 18.554688 84.207031 16.023438 L 84.207031 -7.175781 C 84.207031 -9.707031 82.160156 -11.753906 79.628906 -11.753906 Z M 79.628906 -11.753906 " fill-opacity="1" fill-rule="nonzero"/></g><g clip-path="url(#2faeb60269)"><path fill="#ffffff" d="M 77.429688 72.910156 L 77.429688 84.507812 C 77.429688 85.773438 76.40625 86.796875 75.140625 86.796875 L 64.714844 86.796875 L 64.714844 97.222656 C 64.714844 98.488281 63.691406 99.511719 62.425781 99.511719 L 50.824219 99.511719 C 49.558594 99.511719 48.535156 98.488281 48.535156 97.222656 L 48.535156 86.796875 L 38.109375 86.796875 C 36.84375 86.796875 35.820312 85.773438 35.820312 84.507812 L 35.820312 72.910156 C 35.820312 71.644531 36.84375 70.617188 38.109375 70.617188 L 48.535156 70.617188 L 48.535156 60.195312 C 48.535156 58.929688 49.558594 57.902344 50.824219 57.902344 L 62.425781 57.902344 C 63.691406 57.902344 64.714844 58.929688 64.714844 60.195312 L 64.714844 70.617188 L 75.140625 70.617188 C 76.375 70.617188 77.429688 71.644531 77.429688 72.910156 Z M 114.910156 35.246094 L 106.382812 35.246094 L 106.382812 26.71875 C 106.382812 25.695312 105.539062 24.851562 104.515625 24.851562 L 95.027344 24.851562 C 94 24.851562 93.15625 25.695312 93.15625 26.71875 L 93.15625 35.246094 L 84.628906 35.246094 C 83.605469 35.246094 82.761719 36.089844 82.761719 37.113281 L 82.761719 46.605469 C 82.761719 47.628906 83.605469 48.472656 84.628906 48.472656 L 93.15625 48.472656 L 93.15625 57 C 93.15625 58.023438 94 58.867188 95.027344 58.867188 L 104.515625 58.867188 C 105.539062 58.867188 106.382812 58.023438 106.382812 57 L 106.382812 48.472656 L 114.910156 48.472656 C 115.933594 48.472656 116.777344 47.628906 116.777344 46.605469 L 116.777344 37.113281 C 116.808594 36.089844 115.964844 35.246094 114.910156 35.246094 Z M 114.910156 35.246094 " fill-opacity="1" fill-rule="nonzero"/></g></g></g></g><g mask="url(#c4b71b65ba)"><g transform="matrix(1, 0, 0, 1, 1155, 0)"><g clip-path="url(#df905aaf10)"><g clip-path="url(#81f3a6d492)"><path fill="#ffffff" d="M 79.011719 -11.753906 L 58.191406 -11.753906 L 58.191406 -32.574219 C 58.191406 -35.105469 56.140625 -37.15625 53.609375 -37.15625 L 30.410156 -37.15625 C 27.878906 -37.15625 25.832031 -35.105469 25.832031 -32.574219 L 25.832031 -11.753906 L 5.011719 -11.753906 C 2.480469 -11.753906 0.433594 -9.707031 0.433594 -7.175781 L 0.433594 16.023438 C 0.433594 18.554688 2.480469 20.605469 5.011719 20.605469 L 25.832031 20.605469 L 25.832031 41.421875 C 25.832031 43.953125 27.878906 46.003906 30.410156 46.003906 L 53.609375 46.003906 C 56.140625 46.003906 58.191406 43.953125 58.191406 41.421875 L 58.191406 20.605469 L 79.011719 20.605469 C 81.539062 20.605469 83.589844 18.554688 83.589844 16.023438 L 83.589844 -7.175781 C 83.589844 -9.707031 81.539062 -11.753906 79.011719 -11.753906 Z M 79.011719 -11.753906 " fill-opacity="1" fill-rule="nonzero"/></g><g clip-path="url(#4ce21b3b26)"><path fill="#ffffff" d="M 76.8125 72.910156 L 76.8125 84.507812 C 76.8125 85.773438 75.785156 86.796875 74.519531 86.796875 L 64.097656 86.796875 L 64.097656 97.222656 C 64.097656 98.488281 63.070312 99.511719 61.804688 99.511719 L 50.207031 99.511719 C 48.941406 99.511719 47.917969 98.488281 47.917969 97.222656 L 47.917969 86.796875 L 37.492188 86.796875 C 36.226562 86.796875 35.203125 85.773438 35.203125 84.507812 L 35.203125 72.910156 C 35.203125 71.644531 36.226562 70.617188 37.492188 70.617188 L 47.917969 70.617188 L 47.917969 60.195312 C 47.917969 58.929688 48.941406 57.902344 50.207031 57.902344 L 61.804688 57.902344 C 63.070312 57.902344 64.097656 58.929688 64.097656 60.195312 L 64.097656 70.617188 L 74.519531 70.617188 C 75.757812 70.617188 76.8125 71.644531 76.8125 72.910156 Z M 114.292969 35.246094 L 105.765625 35.246094 L 105.765625 26.71875 C 105.765625 25.695312 104.921875 24.851562 103.898438 24.851562 L 94.40625 24.851562 C 93.382812 24.851562 92.539062 25.695312 92.539062 26.71875 L 92.539062 35.246094 L 84.011719 35.246094 C 82.988281 35.246094 82.144531 36.089844 82.144531 37.113281 L 82.144531 46.605469 C 82.144531 47.628906 82.988281 48.472656 84.011719 48.472656 L 92.539062 48.472656 L 92.539062 57 C 92.539062 58.023438 93.382812 58.867188 94.40625 58.867188 L 103.898438 58.867188 C 104.921875 58.867188 105.765625 58.023438 105.765625 57 L 105.765625 48.472656 L 114.292969 48.472656 C 115.316406 48.472656 116.160156 47.628906 116.160156 46.605469 L 116.160156 37.113281 C 116.191406 36.089844 115.347656 35.246094 114.292969 35.246094 Z M 114.292969 35.246094 " fill-opacity="1" fill-rule="nonzero"/></g></g></g></g><g mask="url(#cb2cb5c9f0)"><g transform="matrix(1, 0, 0, 1, 1060, 0)"><g clip-path="url(#078b18abf4)"><g clip-path="url(#22e96f30f0)"><path fill="#ffffff" d="M 78.871094 -2.566406 L 58.050781 -2.566406 L 58.050781 -23.382812 C 58.050781 -25.914062 56 -27.964844 53.46875 -27.964844 L 30.269531 -27.964844 C 27.738281 -27.964844 25.691406 -25.914062 25.691406 -23.382812 L 25.691406 -2.566406 L 4.871094 -2.566406 C 2.339844 -2.566406 0.292969 -0.515625 0.292969 2.015625 L 0.292969 25.214844 C 0.292969 27.746094 2.339844 29.792969 4.871094 29.792969 L 25.691406 29.792969 L 25.691406 50.613281 C 25.691406 53.144531 27.738281 55.195312 30.269531 55.195312 L 53.46875 55.195312 C 56 55.195312 58.050781 53.144531 58.050781 50.613281 L 58.050781 29.792969 L 78.871094 29.792969 C 81.402344 29.792969 83.449219 27.746094 83.449219 25.214844 L 83.449219 2.015625 C 83.449219 -0.515625 81.402344 -2.566406 78.871094 -2.566406 Z M 78.871094 -2.566406 " fill-opacity="1" fill-rule="nonzero"/></g><g clip-path="url(#1c840fe39f)"><path fill="#ffffff" d="M 76.671875 82.097656 L 76.671875 93.699219 C 76.671875 94.964844 75.644531 95.988281 74.378906 95.988281 L 63.957031 95.988281 L 63.957031 106.414062 C 63.957031 107.679688 62.929688 108.703125 61.664062 108.703125 L 50.066406 108.703125 C 48.800781 108.703125 47.777344 107.679688 47.777344 106.414062 L 47.777344 95.988281 L 37.351562 95.988281 C 36.085938 95.988281 35.0625 94.964844 35.0625 93.699219 L 35.0625 82.097656 C 35.0625 80.832031 36.085938 79.808594 37.351562 79.808594 L 47.777344 79.808594 L 47.777344 69.382812 C 47.777344 68.121094 48.800781 67.09375 50.066406 67.09375 L 61.664062 67.09375 C 62.929688 67.09375 63.957031 68.121094 63.957031 69.382812 L 63.957031 79.808594 L 74.378906 79.808594 C 75.617188 79.808594 76.671875 80.832031 76.671875 82.097656 Z M 114.152344 44.4375 L 105.625 44.4375 L 105.625 35.910156 C 105.625 34.886719 104.78125 34.042969 103.757812 34.042969 L 94.265625 34.042969 C 93.242188 34.042969 92.398438 34.886719 92.398438 35.910156 L 92.398438 44.4375 L 83.871094 44.4375 C 82.847656 44.4375 82.003906 45.28125 82.003906 46.304688 L 82.003906 55.796875 C 82.003906 56.820312 82.847656 57.664062 83.871094 57.664062 L 92.398438 57.664062 L 92.398438 66.191406 C 92.398438 67.214844 93.242188 68.058594 94.265625 68.058594 L 103.757812 68.058594 C 104.78125 68.058594 105.625 67.214844 105.625 66.191406 L 105.625 57.664062 L 114.152344 57.664062 C 115.175781 57.664062 116.019531 56.820312 116.019531 55.796875 L 116.019531 46.304688 C 116.050781 45.28125 115.207031 44.4375 114.152344 44.4375 Z M 114.152344 44.4375 " fill-opacity="1" fill-rule="nonzero"/></g></g></g></g><g mask="url(#3d680d8cef)"><g transform="matrix(1, 0, 0, 1, 1118, 124)"><g clip-path="url(#63e2791cc2)"><g clip-path="url(#a87fc04f43)"><path fill="#ffffff" d="M 78.753906 26.011719 L 57.933594 26.011719 L 57.933594 5.191406 C 57.933594 2.660156 55.882812 0.613281 53.355469 0.613281 L 30.152344 0.613281 C 27.625 0.613281 25.574219 2.660156 25.574219 5.191406 L 25.574219 26.011719 L 4.753906 26.011719 C 2.222656 26.011719 0.175781 28.0625 0.175781 30.59375 L 0.175781 53.792969 C 0.175781 56.324219 2.222656 58.371094 4.753906 58.371094 L 25.574219 58.371094 L 25.574219 79.191406 C 25.574219 81.722656 27.625 83.769531 30.152344 83.769531 L 53.355469 83.769531 C 55.882812 83.769531 57.933594 81.722656 57.933594 79.191406 L 57.933594 58.371094 L 78.753906 58.371094 C 81.285156 58.371094 83.332031 56.324219 83.332031 53.792969 L 83.332031 30.59375 C 83.332031 28.0625 81.285156 26.011719 78.753906 26.011719 Z M 78.753906 26.011719 " fill-opacity="1" fill-rule="nonzero"/></g><g clip-path="url(#831bef64ec)"><path fill="#ffffff" d="M 76.554688 110.675781 L 76.554688 122.277344 C 76.554688 123.542969 75.527344 124.566406 74.265625 124.566406 L 63.839844 124.566406 L 63.839844 134.992188 C 63.839844 136.257812 62.816406 137.28125 61.550781 137.28125 L 49.949219 137.28125 C 48.683594 137.28125 47.660156 136.257812 47.660156 134.992188 L 47.660156 124.566406 L 37.234375 124.566406 C 35.96875 124.566406 34.945312 123.542969 34.945312 122.277344 L 34.945312 110.675781 C 34.945312 109.410156 35.96875 108.386719 37.234375 108.386719 L 47.660156 108.386719 L 47.660156 97.960938 C 47.660156 96.695312 48.683594 95.671875 49.949219 95.671875 L 61.550781 95.671875 C 62.816406 95.671875 63.839844 96.695312 63.839844 97.960938 L 63.839844 108.386719 L 74.265625 108.386719 C 75.5 108.386719 76.554688 109.410156 76.554688 110.675781 Z M 114.035156 73.015625 L 105.507812 73.015625 L 105.507812 64.488281 C 105.507812 63.464844 104.664062 62.621094 103.640625 62.621094 L 94.148438 62.621094 C 93.125 62.621094 92.28125 63.464844 92.28125 64.488281 L 92.28125 73.015625 L 83.753906 73.015625 C 82.730469 73.015625 81.886719 73.859375 81.886719 74.882812 L 81.886719 84.375 C 81.886719 85.398438 82.730469 86.242188 83.753906 86.242188 L 92.28125 86.242188 L 92.28125 94.769531 C 92.28125 95.792969 93.125 96.636719 94.148438 96.636719 L 103.640625 96.636719 C 104.664062 96.636719 105.507812 95.792969 105.507812 94.769531 L 105.507812 86.242188 L 114.035156 86.242188 C 115.058594 86.242188 115.902344 85.398438 115.902344 84.375 L 115.902344 74.882812 C 115.933594 73.859375 115.089844 73.015625 114.035156 73.015625 Z M 114.035156 73.015625 " fill-opacity="1" fill-rule="nonzero"/></g></g></g></g><g mask="url(#18352e128c)"><g transform="matrix(1, 0, 0, 1, 1204, 242)"><g clip-path="url(#efad4810b6)"><g clip-path="url(#e13226c870)"><path fill="#ffffff" d="M 78.941406 25.878906 L 58.121094 25.878906 L 58.121094 5.058594 C 58.121094 2.527344 56.074219 0.480469 53.542969 0.480469 L 30.34375 0.480469 C 27.8125 0.480469 25.765625 2.527344 25.765625 5.058594 L 25.765625 25.878906 L 4.945312 25.878906 C 2.414062 25.878906 0.363281 27.929688 0.363281 30.457031 L 0.363281 53.660156 C 0.363281 56.1875 2.414062 58.238281 4.945312 58.238281 L 25.765625 58.238281 L 25.765625 79.058594 C 25.765625 81.589844 27.8125 83.636719 30.34375 83.636719 L 53.542969 83.636719 C 56.074219 83.636719 58.121094 81.589844 58.121094 79.058594 L 58.121094 58.238281 L 78.941406 58.238281 C 81.472656 58.238281 83.523438 56.1875 83.523438 53.660156 L 83.523438 30.457031 C 83.523438 27.929688 81.472656 25.878906 78.941406 25.878906 Z M 78.941406 25.878906 " fill-opacity="1" fill-rule="nonzero"/></g><g clip-path="url(#a8437e15cd)"><path fill="#ffffff" d="M 76.742188 110.542969 L 76.742188 122.144531 C 76.742188 123.410156 75.71875 124.433594 74.453125 124.433594 L 64.027344 124.433594 L 64.027344 134.859375 C 64.027344 136.125 63.003906 137.148438 61.738281 137.148438 L 50.136719 137.148438 C 48.875 137.148438 47.847656 136.125 47.847656 134.859375 L 47.847656 124.433594 L 37.425781 124.433594 C 36.160156 124.433594 35.132812 123.410156 35.132812 122.144531 L 35.132812 110.542969 C 35.132812 109.277344 36.160156 108.253906 37.425781 108.253906 L 47.847656 108.253906 L 47.847656 97.828125 C 47.847656 96.5625 48.875 95.539062 50.136719 95.539062 L 61.738281 95.539062 C 63.003906 95.539062 64.027344 96.5625 64.027344 97.828125 L 64.027344 108.253906 L 74.453125 108.253906 C 75.6875 108.253906 76.742188 109.277344 76.742188 110.542969 Z M 114.222656 72.882812 L 105.699219 72.882812 L 105.699219 64.355469 C 105.699219 63.332031 104.855469 62.488281 103.828125 62.488281 L 94.339844 62.488281 C 93.3125 62.488281 92.46875 63.332031 92.46875 64.355469 L 92.46875 72.882812 L 83.945312 72.882812 C 82.917969 72.882812 82.074219 73.726562 82.074219 74.75 L 82.074219 84.238281 C 82.074219 85.265625 82.917969 86.109375 83.945312 86.109375 L 92.46875 86.109375 L 92.46875 94.632812 C 92.46875 95.660156 93.3125 96.503906 94.339844 96.503906 L 103.828125 96.503906 C 104.855469 96.503906 105.699219 95.660156 105.699219 94.632812 L 105.699219 86.109375 L 114.222656 86.109375 C 115.25 86.109375 116.09375 85.265625 116.09375 84.238281 L 116.09375 74.75 C 116.121094 73.726562 115.277344 72.882812 114.222656 72.882812 Z M 114.222656 72.882812 " fill-opacity="1" fill-rule="nonzero"/></g></g></g></g></svg>